<?xml version="1.0" encoding="UTF-8" standalone="no"?>
<!-- Created with Inkscape (http://www.inkscape.org/) -->

<svg
   version="1.1"
   id="svg1"
   width="640"
   height="640"
   viewBox="0 0 640.00003 640.00001"
   sodipodi:docname="ventilagon-empezar2.svg"
   inkscape:version="1.3.2 (091e20e, 2023-11-25)"
   inkscape:export-filename="../ventilagon-empezar2.png"
   inkscape:export-xdpi="96"
   inkscape:export-ydpi="96"
   xmlns:inkscape="http://www.inkscape.org/namespaces/inkscape"
   xmlns:sodipodi="http://sodipodi.sourceforge.net/DTD/sodipodi-0.dtd"
   xmlns="http://www.w3.org/2000/svg"
   xmlns:svg="http://www.w3.org/2000/svg">
  <defs
     id="defs1">
    <clipPath
       clipPathUnits="userSpaceOnUse"
       id="clipPath13">
      <path
         d="m 0,145.812 h 412.336 v 359.07 H 0 Z"
         transform="matrix(0.00208874,0,0,0.00278498,0.13873827,-0.40609023)"
         id="path13" />
    </clipPath>
    <clipPath
       clipPathUnits="userSpaceOnUse"
       id="clipPath14">
      <path
         d="m 278.891,326.699 c 0,59.469 -48.207,107.676 -107.676,107.676 -59.465,0 -107.676,-48.207 -107.676,-107.676 0,-59.469 48.211,-107.676 107.676,-107.676 59.469,0 107.676,48.207 107.676,107.676 z"
         transform="scale(1.3333333)"
         id="path14" />
    </clipPath>
    <clipPath
       clipPathUnits="userSpaceOnUse"
       id="clipPath35">
      <path
         d="m 126.352,373.715 h 483.117 v 362.34 H 126.352 Z"
         transform="matrix(0.00206988,0,0,0.00275985,-0.26152921,-1.0313985)"
         id="path35" />
    </clipPath>
    <clipPath
       clipPathUnits="userSpaceOnUse"
       id="clipPath36">
      <path
         d="m 487.398,566.492 c 0,59.688 -48.382,108.07 -108.066,108.07 -59.687,0 -108.07,-48.382 -108.07,-108.07 0,-59.683 48.383,-108.066 108.07,-108.066 59.684,0 108.066,48.383 108.066,108.066 z"
         transform="scale(1.3333333)"
         id="path36" />
    </clipPath>
    <clipPath
       clipPathUnits="userSpaceOnUse"
       id="clipPath58">
      <path
         d="m 0,606.586 h 390.59 v 352.16 H 0 Z"
         transform="matrix(0.00212972,0,0,0.00283962,0.16815345,-1.7224711)"
         id="path58" />
    </clipPath>
    <clipPath
       clipPathUnits="userSpaceOnUse"
       id="clipPath59">
      <path
         d="m 262.293,788.832 c 0,58.578 -47.484,106.063 -106.063,106.063 -58.578,0 -106.066,-47.485 -106.066,-106.063 0,-58.578 47.488,-106.066 106.066,-106.066 58.579,0 106.063,47.488 106.063,106.066 z"
         transform="scale(1.3333333)"
         id="path59" />
    </clipPath>
    <clipPath
       clipPathUnits="userSpaceOnUse"
       id="clipPath443">
      <path
         d="m 691.23,1065.977 h 21.785 v 21.785 H 691.23 Z"
         id="path443" />
    </clipPath>
    <clipPath
       clipPathUnits="userSpaceOnUse"
       id="clipPath445">
      <path
         d="m 691.23,1065.977 h 21.785 v 21.785 H 691.23 Z"
         id="path445" />
    </clipPath>
    <clipPath
       clipPathUnits="userSpaceOnUse"
       id="clipPath447">
      <path
         d="m 759.703,1065.977 h 21.785 v 21.785 h -21.785 z"
         id="path447" />
    </clipPath>
    <clipPath
       clipPathUnits="userSpaceOnUse"
       id="clipPath449">
      <path
         d="m 759.703,1065.977 h 21.785 v 21.785 h -21.785 z"
         id="path449" />
    </clipPath>
    <clipPath
       clipPathUnits="userSpaceOnUse"
       id="clipPath451">
      <path
         d="m 691.23,1134.449 h 21.785 v 21.785 H 691.23 Z"
         id="path451" />
    </clipPath>
    <clipPath
       clipPathUnits="userSpaceOnUse"
       id="clipPath453">
      <path
         d="m 691.23,1134.449 h 21.785 v 21.785 H 691.23 Z"
         id="path453" />
    </clipPath>
  </defs>
  <sodipodi:namedview
     id="namedview1"
     pagecolor="#1a1a1a"
     bordercolor="#000000"
     borderopacity="0.25"
     inkscape:showpageshadow="2"
     inkscape:pageopacity="0.0"
     inkscape:pagecheckerboard="0"
     inkscape:deskcolor="#d1d1d1"
     inkscape:zoom="1.562105"
     inkscape:cx="402.02163"
     inkscape:cy="381.21637"
     inkscape:window-width="1392"
     inkscape:window-height="842"
     inkscape:window-x="49"
     inkscape:window-y="31"
     inkscape:window-maximized="0"
     inkscape:current-layer="g1"
     showguides="true"
     inkscape:export-bgcolor="#000000ff">
    <inkscape:page
       x="0"
       y="0"
       inkscape:label="1"
       id="page1"
       width="640"
       height="640"
       margin="0"
       bleed="0"
       inkscape:export-filename="../ventilagon-empezar2.png"
       inkscape:export-xdpi="96"
       inkscape:export-ydpi="96" />
    <sodipodi:guide
       position="314.31947,301.99457"
       orientation="0,-1"
       id="guide1"
       inkscape:locked="false" />
  </sodipodi:namedview>
  <g
     id="g1"
     inkscape:groupmode="layer"
     inkscape:label="1">
    <path
       id="path60"
       d="m 638.00422,320.00236 c 0,175.63176 -142.36768,318.00387 -318.00065,318.00387 C 144.3736,638.00623 1.9939327,495.63412 1.9939327,320.00236 1.9939327,144.3706 144.3736,1.989487 320.00357,1.989487 c 175.63297,0 318.00065,142.381113 318.00065,318.012873 z"
       style="fill:none;stroke:none;stroke-width:3.99159;stroke-linecap:butt;stroke-linejoin:miter;stroke-miterlimit:4;stroke-dasharray:3.99159, 3.99159;stroke-dashoffset:0;stroke-opacity:1" />
    <g
       id="g453"
       transform="matrix(2.1533675,0,0,2.1533675,-741.61279,-2057.3335)">
      <path
         id="path79"
         style="fill:#f9f9f9;fill-opacity:1;fill-rule:nonzero;stroke:none;stroke-width:1.33326;stroke-dasharray:none"
         d="m 463.31602,1054.0862 c -5.87144,0.012 -11.74534,-0.022 -17.61521,0.053 -5.55771,0.4025 -10.39362,5.4327 -10.39607,11.0389 -0.12687,3.003 0.0221,5.9785 -0.0393,8.9438 0.01,17.1722 -0.037,34.3454 0.0368,51.5169 0.29896,5.6099 5.32879,10.5498 10.97536,10.5958 2.85268,0.1328 5.65213,-0.024 8.45438,0.041 28.4474,-0.01 56.89593,0.03 85.34261,-0.03 5.61362,-0.2899 10.58578,-5.3039 10.63825,-10.9606 0.13376,-3.0358 -0.0188,-6.046 0.0431,-9.0438 -0.0115,-17.1709 0.0349,-34.3428 -0.0387,-51.513 -0.32459,-5.6042 -5.34595,-10.5409 -10.99485,-10.5843 -2.85261,-0.136 -5.65205,0.026 -8.45439,-0.041 z m -16.18907,5.8884 c 30.85922,0 61.71975,-0.028 92.57858,0 3.04474,0.1571 5.49837,3.2023 5.16364,6.2041 -0.009,19.7283 0.0352,39.4576 -0.0321,59.1852 -0.22646,2.9969 -3.22877,5.3895 -6.19721,5.0543 -30.80046,6e-4 -61.6014,0.039 -92.40156,0 -3.00781,-0.2242 -5.43772,-3.2017 -5.10353,-6.1926 0.0111,-19.7327 -0.0328,-39.4664 0.0341,-59.1984 0.2149,-2.9009 3.07184,-5.2916 5.95814,-5.0563 z"
         sodipodi:nodetypes="cccccccccccccccccccccccc" />
      <path
         id="path80"
         d="m 532.29575,1108.6663 c -5.104,0 -9.27067,4.1666 -9.27067,9.2706 0,5.104 4.16667,9.2653 9.27067,9.2653 5.104,0 9.26533,-4.1613 9.26533,-9.2653 0,-5.1093 -4.16133,-9.2706 -9.26533,-9.2706 z m 0,16.4013 c -3.932,0 -7.13467,-3.204 -7.13467,-7.1307 0,-3.932 3.20267,-7.136 7.13467,-7.136 3.928,0 7.11467,3.1987 7.11467,7.136 0,3.9267 -3.18667,7.1307 -7.11467,7.1307 z"
         style="fill:#ff0000;fill-opacity:1;fill-rule:nonzero;stroke:none;stroke-width:1.33333" />
      <path
         id="path81"
         d="m 532.29575,1114.1289 c -2.104,0 -3.80667,1.7094 -3.80667,3.808 0,2.0987 1.70267,3.8067 3.80667,3.8067 2.09867,0 3.808,-1.708 3.808,-3.8067 0,-2.0986 -1.70933,-3.808 -3.808,-3.808 z"
         style="fill:#ff0000;fill-opacity:1;fill-rule:nonzero;stroke:none;stroke-width:1.33333" />
      <path
         id="path82"
         d="m 453.44664,1108.6663 c -5.104,0 -9.27066,4.1666 -9.27066,9.2706 0,5.104 4.16666,9.2654 9.27066,9.2654 5.10534,0 9.27067,-4.1614 9.27067,-9.2654 0,-5.1093 -4.16533,-9.2706 -9.27067,-9.2706 z m 0,16.4013 c -3.932,0 -7.12933,-3.204 -7.12933,-7.1307 0,-3.932 3.19733,-7.136 7.12933,-7.136 3.93334,0 7.12,3.1987 7.12,7.136 0,3.9267 -3.18666,7.1307 -7.12,7.1307 z"
         style="fill:#ff0000;fill-opacity:1;fill-rule:nonzero;stroke:none;stroke-width:1.33333" />
      <path
         id="path83"
         d="m 453.44664,1114.1289 c -2.09866,0 -3.80666,1.7094 -3.80666,3.808 0,2.0987 1.708,3.8067 3.80666,3.8067 2.1,0 3.808,-1.708 3.808,-3.8067 0,-2.0986 -1.708,-3.808 -3.808,-3.808 z"
         style="fill:#ff0000;fill-opacity:1;fill-rule:nonzero;stroke:none;stroke-width:1.33333" />
      <path
         id="path84"
         style="fill:#f9f9f9;fill-opacity:1;fill-rule:nonzero;stroke:none;stroke-width:1.33333"
         d="m 476.25259,1064.2448 c -3.41516,-0.056 -6.43162,3.0572 -6.28646,6.4666 0.0262,8.7607 -0.0523,17.5248 0.0391,26.2834 0.28733,3.2741 3.43021,5.892 6.69687,5.6484 11.96649,0 23.93298,0 35.89948,0 0.55452,-0.288 1.50049,-0.3784 2.1224,-0.8073 2.31852,-1.2252 3.53968,-3.9199 3.28385,-6.4828 -0.0262,-8.4871 0.0524,-16.9775 -0.0391,-25.4625 -0.28784,-3.273 -3.42934,-5.8953 -6.69686,-5.6484 -11.67306,0 -23.34644,0 -35.01928,0 z m 17.75261,3.9921 c 6.01216,0.02 12.02876,-0.04 18.03816,0.03 1.47479,0.1741 2.22799,1.7617 1.99048,3.1165 -0.0199,8.4261 0.0397,16.8566 -0.0298,25.2798 -0.17506,1.4746 -1.76135,2.2285 -3.11654,1.9905 -11.64989,-0.021 -23.30472,0.042 -34.9515,-0.031 -1.46122,-0.1936 -2.1888,-1.7726 -1.95944,-3.1152 0.0206,-8.426 -0.0412,-16.8568 0.0309,-25.2797 0.17061,-1.4772 1.76093,-2.23 3.11548,-1.9907 5.62742,0 11.25485,0 16.88229,0 z" />
      <path
         id="path85"
         style="fill:#f9f9f9;fill-opacity:1;fill-rule:nonzero;stroke:none;stroke-width:1.33333"
         d="m 477.82291,1075.1015 c -1.33918,0.024 -2.12395,1.4357 -1.89844,2.6589 0.12821,1.3527 -0.28415,2.8181 0.26153,4.0937 0.75497,1.5601 3.33295,1.2182 3.66815,-0.4791 0.12822,-1.5482 0.0724,-3.1293 0.0286,-4.6849 -0.19525,-0.94 -1.09565,-1.6537 -2.05989,-1.5886 z" />
      <path
         id="path86"
         style="fill:#f9f9f9;fill-opacity:1;fill-rule:nonzero;stroke:none;stroke-width:1.33333"
         d="m 483.10936,1073.3724 c -1.3394,0.022 -2.12977,1.435 -1.90364,2.6588 0.0487,2.3462 -0.0953,4.7122 0.0677,7.0469 0.32505,1.6681 2.83184,2.0477 3.63281,0.5495 0.60241,-1.2203 0.16743,-2.6601 0.29948,-3.9724 -0.0758,-1.6355 0.15063,-3.3099 -0.10937,-4.9225 -0.26168,-0.8326 -1.11662,-1.4174 -1.98699,-1.3603 z" />
      <path
         id="path87"
         style="fill:#f9f9f9;fill-opacity:1;fill-rule:nonzero;stroke:none;stroke-width:1.33333"
         d="m 488.3854,1075.6692 c -1.34315,0.014 -2.13627,1.4332 -1.90885,2.6589 0.0447,1.2812 -0.3532,3.054 1.07552,3.7485 1.35116,0.7989 3.15064,-0.5046 2.91928,-2.0308 -0.11739,-1.3667 0.46508,-3.2222 -0.96095,-4.0849 -0.33461,-0.2086 -0.73132,-0.3129 -1.125,-0.2917 z" />
      <path
         id="path88"
         style="fill:#f9f9f9;fill-opacity:1;fill-rule:nonzero;stroke:none;stroke-width:1.33333"
         d="m 493.65624,1071.0963 c -1.33917,0.024 -2.12395,1.4357 -1.89844,2.6589 0.0268,3.8421 -0.0531,7.6902 0.0391,11.5286 0.26088,1.6855 2.73013,2.1735 3.61718,0.7188 0.66407,-1.2319 0.20043,-2.7122 0.33854,-4.0505 -0.0456,-3.1171 0.0899,-6.2518 -0.0651,-9.3584 -0.21665,-0.9021 -1.10615,-1.557 -2.03124,-1.4974 z" />
      <path
         id="path89"
         style="fill:#f9f9f9;fill-opacity:1;fill-rule:nonzero;stroke:none;stroke-width:1.33333"
         d="m 498.94269,1075.1015 c -1.3394,0.022 -2.12977,1.4351 -1.90364,2.6589 0.12932,1.3527 -0.28673,2.8197 0.26414,4.0937 0.7558,1.5555 3.31986,1.2216 3.66816,-0.4687 0.13422,-1.5523 0.0733,-3.1398 0.0312,-4.7005 -0.20556,-0.9345 -1.09463,-1.6499 -2.0599,-1.5834 z" />
      <path
         id="path90"
         style="fill:#f9f9f9;fill-opacity:1;fill-rule:nonzero;stroke:none;stroke-width:1.33333"
         d="m 504.20051,1073.3724 c -1.3353,0.029 -2.12122,1.4371 -1.89583,2.6588 0.0487,2.3462 -0.0953,4.7122 0.0677,7.0469 0.325,1.6691 2.83006,2.0466 3.63281,0.5495 0.60901,-1.2643 0.16316,-2.7496 0.29948,-4.1057 -0.087,-1.6106 0.17479,-3.2673 -0.13021,-4.85 -0.28436,-0.8059 -1.12224,-1.3542 -1.97396,-1.2995 z" />
      <path
         id="path91"
         style="fill:#f9f9f9;fill-opacity:1;fill-rule:nonzero;stroke:none;stroke-width:1.33333"
         d="m 509.49999,1075.6692 c -1.3428,0.014 -2.13662,1.433 -1.90886,2.6589 0.0448,1.2811 -0.35361,3.0541 1.07551,3.7485 1.35052,0.7978 3.15528,-0.5021 2.91928,-2.0308 -0.11932,-1.366 0.46772,-3.2224 -0.95833,-4.0849 -0.33552,-0.2075 -0.73374,-0.3126 -1.1276,-0.2917 z" />
      <path
         id="path92"
         style="fill:#f9f9f9;fill-opacity:1;fill-rule:nonzero;stroke:none;stroke-width:1.33333"
         d="m 485.09113,1085.8229 c -2.11097,-0.015 -4.14193,1.3715 -4.89844,3.3411 -1.38029,0.1648 -3.04317,-0.4445 -4.18229,0.586 -1.27333,1.1582 -0.27889,3.5035 1.43229,3.414 0.92188,0 1.84375,0 2.76563,0 1.04735,2.8539 4.75251,4.231 7.40441,2.7334 1.11342,-0.5777 2.00915,-1.5666 2.47059,-2.7334 6.96292,-0.024 13.93077,0.049 20.89063,-0.036 1.63714,-0.272 2.17178,-2.6453 0.78125,-3.5677 -1.17639,-0.7528 -2.67229,-0.2492 -3.98751,-0.3959 -5.9,0 -11.8,0 -17.7,0 -0.77232,-1.9953 -2.83534,-3.3853 -4.97656,-3.3411 z m 0.16667,4.0156 c 1.41957,0.045 1.64427,2.2772 0.27864,2.6224 -1.26487,0.4821 -2.38292,-1.3259 -1.35156,-2.2344 0.27441,-0.2851 0.68065,-0.4269 1.07292,-0.388 z" />
      <path
         id="path93"
         style="fill:#00ff00;fill-opacity:1;fill-rule:nonzero;stroke:none;stroke-width:1.33333"
         d="m 532.3026,1112.4975 c -2.73083,0.022 -5.41867,2.3644 -5.25395,5.209 -0.12396,2.5317 1.85708,4.4206 3.0478,6.4554 2.69631,4.0768 5.40559,8.1528 8.09156,12.2393 -2.36169,-0.9012 -4.7212,-2.4849 -7.36719,-1.9636 -2.90941,0.4599 -5.71222,3.0127 -5.6302,6.0964 0.0536,1.8588 1.43291,3.377 3.09298,4.0581 7.96981,4.427 15.98185,8.7831 23.92525,13.2544 0.84384,0.6254 1.27515,1.6206 1.88801,2.4453 -1.7742,1.2124 -2.01396,3.911 -0.61866,5.5066 1.42,2.0218 2.64338,4.1977 4.18385,6.1257 1.37832,1.4028 3.74964,1.3321 5.19068,0.059 7.14289,-4.7589 14.31404,-9.478 21.43945,-14.2614 1.61789,-1.2638 1.74091,-3.8155 0.41815,-5.3373 -1.4194,-2.0202 -2.64227,-4.1947 -4.17856,-6.1237 -1.07515,-1.0668 -2.82468,-1.3507 -4.18491,-0.6874 -0.85477,-1.1508 -1.76702,-2.5372 -1.27082,-4.0376 0.55801,-2.0959 0.7261,-4.4266 -0.38542,-6.3817 -2.92997,-4.5076 -5.95889,-8.9552 -8.90264,-13.455 -0.98344,-1.586 -2.17545,-3.2917 -4.11445,-3.7321 -1.92112,-0.5389 -4.12065,0.1093 -5.42823,1.622 -1.12793,-2.2005 -3.72721,-3.5963 -6.17372,-2.9655 -1.09882,0.2425 -2.11408,0.848 -2.85232,1.6972 -1.78465,-2.4457 -5.6684,-2.7798 -7.85416,-0.6927 -0.5435,0.9459 -0.89288,-0.2469 -1.32573,-0.7144 -1.28861,-1.7112 -2.45488,-4.0261 -4.8142,-4.3504 -0.30487,-0.056 -0.61365,-0.063 -0.92257,-0.065 z m 0.18489,4.013 c 1.25587,0.2172 1.56761,1.7148 2.31631,2.5576 3.38868,5.0664 6.71581,10.1803 10.13993,15.2188 1.05031,1.3904 3.48927,0.5125 3.48127,-1.2034 -0.032,-1.3936 -1.27542,-2.357 -1.87974,-3.5331 -1.61213,-2.4697 -3.3051,-4.8932 -4.86766,-7.3914 -0.59414,-1.2455 1.1313,-2.5517 2.15885,-1.6198 1.89768,2.5723 3.54801,5.3327 5.35327,7.9779 0.80101,1.1036 1.45992,2.928 3.14413,2.6914 1.52516,-0.1544 2.26517,-2.1766 1.23775,-3.3054 -1.19567,-1.8906 -2.57244,-3.684 -3.65702,-5.6347 -0.46862,-1.298 1.37159,-2.4412 2.30728,-1.3985 2.54732,3.638 4.87495,7.4453 7.44011,11.0677 1.14317,1.2826 3.47385,0.2934 3.39844,-1.4036 -0.13661,-1.3864 -1.33565,-2.3595 -1.95981,-3.547 -0.70295,-1.1978 -1.68735,-2.258 -2.21727,-3.5416 -0.33868,-1.3464 1.63412,-2.2682 2.43749,-1.1354 3.2772,4.9296 6.58683,9.8463 9.79902,14.816 0.90769,1.9115 -0.54454,3.9055 -0.23988,5.8914 0.079,1.7793 1.03001,3.3417 2.07108,4.7275 -5.18403,3.4445 -10.36806,6.8889 -15.55208,10.3334 -1.03751,-1.7231 -2.28632,-3.43 -4.17979,-4.2758 -7.98045,-4.4315 -15.99881,-8.8078 -23.95564,-13.2737 -0.26853,-0.803 0.70277,-1.4946 1.31511,-1.8646 1.85309,-0.9395 3.65409,0.5403 5.3651,1.1162 2.39919,0.9838 4.75958,2.0827 7.18178,2.9984 1.5471,0.3806 2.96757,-1.4368 2.20052,-2.8412 -4.69864,-7.1903 -9.53864,-14.2985 -14.22136,-21.4974 -0.4145,-0.932 0.36376,-2.0184 1.38281,-1.9297 z m 48.9948,38.2735 c -7.06251,4.691 -14.125,9.3819 -21.18751,14.0729 -1.21701,-1.8273 -2.43402,-3.6545 -3.65104,-5.4818 6.91591,-4.6344 13.98026,-9.3293 20.97024,-13.9512 0.62012,-0.075 0.95694,1.2587 1.46334,1.7492 0.80165,1.2036 1.60332,2.4073 2.40497,3.6109 z" />
      <path
         id="path94"
         style="fill:#00ff00;fill-opacity:1;fill-rule:nonzero;stroke:none;stroke-width:1.33333"
         d="m 453.32978,1112.4975 c -2.10122,-0.111 -3.71886,1.4995 -4.74138,3.1605 -0.58795,0.8146 -1.17588,1.6291 -1.76383,2.4437 -1.92081,-2.3425 -5.8288,-2.4878 -7.89844,-0.263 -0.37069,0.7941 -0.69091,0.1419 -1.13007,-0.1933 -2.33393,-1.9494 -6.20214,-1.3486 -7.83608,1.2167 -0.31621,0.8955 -0.67177,0.619 -1.17544,0.076 -2.3308,-1.9549 -6.20438,-1.3311 -7.81674,1.2466 -3.32394,4.9261 -6.5827,9.8991 -9.86978,14.8486 -1.17538,1.9718 -1.03377,4.3673 -0.45277,6.5039 0.50665,1.5026 -0.42801,2.8805 -1.27381,4.0356 -1.79036,-0.9047 -4.10236,-0.027 -4.98576,1.7407 -1.31592,2.083 -2.83787,4.0505 -4.03247,6.202 -0.73833,1.7671 0.15276,3.9043 1.85052,4.7403 7.23683,4.7816 14.42981,9.6339 21.69376,14.3716 1.85044,0.9087 4.16912,-0.053 5.04405,-1.8699 1.29367,-2.0532 2.8006,-3.9858 3.96636,-6.1118 0.61827,-1.5231 0.0623,-3.4067 -1.28125,-4.3516 0.77759,-1.2187 1.55459,-2.5463 2.98148,-3.0874 8.01081,-4.4394 16.04669,-8.8395 24.04196,-13.3032 2.10876,-1.3717 2.46391,-4.509 0.94516,-6.4509 -1.83516,-2.8578 -5.85445,-3.9428 -8.88112,-2.4008 -1.06041,0.4497 -2.12083,0.8994 -3.18123,1.3491 3.4874,-5.3513 7.10495,-10.623 10.53006,-16.0102 1.07484,-2.1089 0.80617,-5.0334 -1.1534,-6.5395 -0.9789,-0.8629 -2.27512,-1.3511 -3.57978,-1.354 z m 0.14323,4.0209 c 1.25651,0.071 1.62665,1.7326 0.77352,2.5285 -4.62019,6.9888 -9.29921,13.9428 -13.88289,20.9532 -0.7232,1.4595 0.82388,3.2467 2.36978,2.7448 3.47951,-1.3846 6.88,-2.9933 10.38058,-4.316 1.37361,-0.362 3.21405,0.4989 3.4163,1.9619 -0.79936,0.7535 -1.97004,1.1221 -2.90512,1.7338 -7.3988,4.1183 -14.84674,8.1545 -22.21525,12.3233 -1.3762,0.8713 -2.21069,2.3055 -3.08536,3.6304 -5.18403,-3.4445 -10.36805,-6.8889 -15.55208,-10.3334 1.44833,-1.7955 2.45948,-4.1148 1.98752,-6.455 -0.25691,-1.5388 -0.96369,-3.3066 0.14868,-4.6899 3.20727,-4.7926 6.33921,-9.6418 9.59296,-14.3993 0.91157,-1.0358 2.76327,0.073 2.30729,1.3671 -1.19072,2.1454 -2.748,4.0932 -4.0026,6.2084 -0.70422,1.5223 1.04203,3.3081 2.56948,2.6024 1.27962,-0.6148 1.70536,-2.1518 2.57042,-3.1969 1.85398,-2.7684 3.64969,-5.5817 5.55541,-8.3118 0.93232,-1.0396 2.77553,0.1023 2.30469,1.3985 -1.18966,2.1838 -2.82002,4.1317 -4.02344,6.3073 -0.64068,1.5615 1.22059,3.2647 2.71355,2.4583 1.20716,-0.7172 1.66247,-2.2002 2.52339,-3.2603 1.64018,-2.3987 3.13706,-4.9043 4.86462,-7.2345 1.03003,-0.9338 2.75218,0.3741 2.15626,1.6198 -2.13246,3.3989 -4.47608,6.6757 -6.60938,10.0755 -0.69381,1.5218 1.04452,3.3084 2.57208,2.5999 1.27527,-0.6196 1.70464,-2.1531 2.57056,-3.1977 3.27527,-4.897 6.48372,-9.844 9.80007,-14.7095 0.28525,-0.2745 0.69613,-0.4686 1.09896,-0.4088 z m -44.58595,33.4218 c 6.24184,4.1153 12.46752,8.2855 18.70314,12.4219 0.28762,0.5151 1.97537,0.7128 1.19393,1.4569 -1.11847,1.6793 -2.23693,3.3586 -3.3554,5.0379 -7.06249,-4.691 -14.125,-9.3819 -21.18749,-14.0729 1.21961,-1.8333 2.43924,-3.6667 3.65885,-5.5 0.32899,0.2187 0.65799,0.4375 0.98697,0.6562 z" />
    </g>
  </g>
</svg>
